<svg xmlns="http://www.w3.org/2000/svg" width="670" height="624" viewBox="0 0 670 624" fill="none">
  <g filter="url(#filter0_d_13_2)">
    <path d="M560.139 488.827C577.103 501.545 601.345 498.641 612.517 480.622C640.989 434.701 656.877 382.282 658.334 328.354C660.131 261.847 639.886 196.523 600.551 141.909C561.216 87.2953 504.847 46.2467 439.665 24.7486C374.482 3.25061 303.895 2.42745 238.194 22.3992C172.493 42.371 115.115 82.0932 74.4267 135.774C33.738 189.455 11.8662 254.287 12.0006 320.817C12.135 387.347 34.2685 452.097 75.1737 505.624C108.523 549.263 152.927 583.582 203.84 605.461C223.156 613.761 244.546 602.359 250.979 582.344C257.593 561.764 245.829 540.025 226.362 530.629C192.131 514.106 162.237 489.935 139.291 459.908C108.471 419.578 91.7949 370.794 91.6936 320.667C91.5924 270.54 108.071 221.693 138.728 181.248C169.385 140.802 212.615 110.874 262.117 95.8266C311.619 80.779 364.802 81.3992 413.914 97.5967C463.025 113.794 505.495 144.722 535.132 185.87C564.768 227.019 580.022 276.236 578.668 326.346C577.678 362.972 567.854 398.674 550.214 430.699C539.487 450.173 542.35 475.491 560.139 488.827Z" fill="#edf4e2" fill-opacity="0.8" shape-rendering="crispEdges"/>
    <path d="M560.139 488.827C577.103 501.545 601.345 498.641 612.517 480.622C640.989 434.701 656.877 382.282 658.334 328.354C660.131 261.847 639.886 196.523 600.551 141.909C561.216 87.2953 504.847 46.2467 439.665 24.7486C374.482 3.25061 303.895 2.42745 238.194 22.3992C172.493 42.371 115.115 82.0932 74.4267 135.774C33.738 189.455 11.8662 254.287 12.0006 320.817C12.135 387.347 34.2685 452.097 75.1737 505.624C108.523 549.263 152.927 583.582 203.84 605.461C223.156 613.761 244.546 602.359 250.979 582.344C257.593 561.764 245.829 540.025 226.362 530.629C192.131 514.106 162.237 489.935 139.291 459.908C108.471 419.578 91.7949 370.794 91.6936 320.667C91.5924 270.54 108.071 221.693 138.728 181.248C169.385 140.802 212.615 110.874 262.117 95.8266C311.619 80.779 364.802 81.3992 413.914 97.5967C463.025 113.794 505.495 144.722 535.132 185.87C564.768 227.019 580.022 276.236 578.668 326.346C577.678 362.972 567.854 398.674 550.214 430.699C539.487 450.173 542.35 475.491 560.139 488.827Z" stroke="black" stroke-width="10" shape-rendering="crispEdges"/>
  </g>
  <defs>
    <filter id="filter0_d_13_2" x="0.5" y="0.5" width="669.444" height="623.224" filterUnits="userSpaceOnUse" color-interpolation-filters="sRGB">
      <feFlood flood-opacity="0" result="BackgroundImageFix"/>
      <feColorMatrix in="SourceAlpha" type="matrix" values="0 0 0 0 0 0 0 0 0 0 0 0 0 0 0 0 0 0 127 0" result="hardAlpha"/>
      <feOffset dy="4"/>
      <feGaussianBlur stdDeviation="2"/>
      <feComposite in2="hardAlpha" operator="out"/>
      <feColorMatrix type="matrix" values="0 0 0 0 0 0 0 0 0 0 0 0 0 0 0 0 0 0 0.25 0"/>
      <feBlend mode="normal" in2="BackgroundImageFix" result="effect1_dropShadow_13_2"/>
      <feBlend mode="normal" in="SourceGraphic" in2="effect1_dropShadow_13_2" result="shape"/>
    </filter>
  </defs>
</svg>